<svg xmlns="http://www.w3.org/2000/svg" xmlns:xlink="http://www.w3.org/1999/xlink" width="40" zoomAndPan="magnify" viewBox="0 0 30 30.000001" height="40" preserveAspectRatio="xMidYMid meet" version="1.0">
  <defs>
    <clipPath id="0343c5ff75">
      <path d="M 0.484375 0 L 3 0 L 3 3 L 0.484375 3 Z M 0.484375 0 " clip-rule="nonzero"/>
    </clipPath>
    <clipPath id="b6d5b55617">
      <path d="M 0.484375 0 L 6 0 L 6 6 L 0.484375 6 Z M 0.484375 0 " clip-rule="nonzero"/>
    </clipPath>
    <clipPath id="73b4d51b9d">
      <path d="M 0.484375 0 L 9 0 L 9 9 L 0.484375 9 Z M 0.484375 0 " clip-rule="nonzero"/>
    </clipPath>
    <clipPath id="05280a8737">
      <path d="M 0.484375 0 L 12 0 L 12 12 L 0.484375 12 Z M 0.484375 0 " clip-rule="nonzero"/>
    </clipPath>
    <clipPath id="bdc780e718">
      <path d="M 0.484375 0 L 15 0 L 15 15 L 0.484375 15 Z M 0.484375 0 " clip-rule="nonzero"/>
    </clipPath>
    <clipPath id="2b87a4d14b">
      <path d="M 0.484375 0 L 18 0 L 18 18 L 0.484375 18 Z M 0.484375 0 " clip-rule="nonzero"/>
    </clipPath>
    <clipPath id="2ca7c4526e">
      <path d="M 0.484375 0 L 21 0 L 21 21 L 0.484375 21 Z M 0.484375 0 " clip-rule="nonzero"/>
    </clipPath>
    <clipPath id="823e7cdf8a">
      <path d="M 0.484375 0 L 24 0 L 24 24 L 0.484375 24 Z M 0.484375 0 " clip-rule="nonzero"/>
    </clipPath>
    <clipPath id="efeed52ea2">
      <path d="M 0.484375 0 L 27 0 L 27 27 L 0.484375 27 Z M 0.484375 0 " clip-rule="nonzero"/>
    </clipPath>
    <clipPath id="7b8b0adc1e">
      <path d="M 3 2 L 29.515625 2 L 29.515625 29.03125 L 3 29.03125 Z M 3 2 " clip-rule="nonzero"/>
    </clipPath>
    <clipPath id="bfa8a381b6">
      <path d="M 6 5 L 29.515625 5 L 29.515625 29.03125 L 6 29.03125 Z M 6 5 " clip-rule="nonzero"/>
    </clipPath>
    <clipPath id="64e985e611">
      <path d="M 9 8 L 29.515625 8 L 29.515625 29.03125 L 9 29.03125 Z M 9 8 " clip-rule="nonzero"/>
    </clipPath>
    <clipPath id="823aaa51fb">
      <path d="M 12 11 L 29.515625 11 L 29.515625 29.03125 L 12 29.03125 Z M 12 11 " clip-rule="nonzero"/>
    </clipPath>
    <clipPath id="d1661064de">
      <path d="M 15 14 L 29.515625 14 L 29.515625 29.03125 L 15 29.03125 Z M 15 14 " clip-rule="nonzero"/>
    </clipPath>
    <clipPath id="3e7f993340">
      <path d="M 18 17 L 29.515625 17 L 29.515625 29.03125 L 18 29.03125 Z M 18 17 " clip-rule="nonzero"/>
    </clipPath>
    <clipPath id="f29f6063c8">
      <path d="M 21 20 L 29.515625 20 L 29.515625 29.03125 L 21 29.03125 Z M 21 20 " clip-rule="nonzero"/>
    </clipPath>
    <clipPath id="e8e0c920d8">
      <path d="M 24 23 L 29.515625 23 L 29.515625 29.03125 L 24 29.03125 Z M 24 23 " clip-rule="nonzero"/>
    </clipPath>
    <clipPath id="3d8af238c1">
      <path d="M 27 26 L 29.515625 26 L 29.515625 29.03125 L 27 29.03125 Z M 27 26 " clip-rule="nonzero"/>
    </clipPath>
    <clipPath id="ae84564057">
      <path d="M 0.484375 0 L 29.515625 0 L 29.515625 29.03125 L 0.484375 29.03125 Z M 0.484375 0 " clip-rule="nonzero"/>
    </clipPath>
  </defs>
  <g clip-path="url(#0343c5ff75)">
    <path fill="#000000" d="M 0.796875 2.46875 C 0.871094 2.46875 0.945312 2.4375 1 2.382812 L 2.851562 0.53125 C 2.964844 0.417969 2.964844 0.238281 2.851562 0.128906 C 2.742188 0.015625 2.5625 0.015625 2.449219 0.128906 L 0.597656 1.980469 C 0.484375 2.089844 0.484375 2.273438 0.597656 2.382812 C 0.652344 2.4375 0.726562 2.46875 0.796875 2.46875 Z M 0.796875 2.46875 " fill-opacity="1" fill-rule="nonzero"/>
  </g>
  <g clip-path="url(#b6d5b55617)">
    <path fill="#000000" d="M 0.796875 5.417969 C 0.871094 5.417969 0.945312 5.390625 1 5.335938 L 5.804688 0.53125 C 5.914062 0.417969 5.914062 0.238281 5.804688 0.128906 C 5.691406 0.015625 5.511719 0.015625 5.402344 0.128906 L 0.597656 4.929688 C 0.484375 5.042969 0.484375 5.222656 0.597656 5.335938 C 0.652344 5.390625 0.726562 5.417969 0.796875 5.417969 Z M 0.796875 5.417969 " fill-opacity="1" fill-rule="nonzero"/>
  </g>
  <g clip-path="url(#73b4d51b9d)">
    <path fill="#000000" d="M 0.796875 8.367188 C 0.871094 8.367188 0.945312 8.339844 1 8.285156 L 8.753906 0.53125 C 8.863281 0.417969 8.863281 0.238281 8.753906 0.128906 C 8.640625 0.015625 8.460938 0.015625 8.351562 0.128906 L 0.597656 7.878906 C 0.484375 7.992188 0.484375 8.171875 0.597656 8.285156 C 0.652344 8.339844 0.726562 8.367188 0.796875 8.367188 Z M 0.796875 8.367188 " fill-opacity="1" fill-rule="nonzero"/>
  </g>
  <g clip-path="url(#05280a8737)">
    <path fill="#000000" d="M 0.796875 11.316406 C 0.871094 11.316406 0.945312 11.289062 1 11.234375 L 4.703125 7.527344 C 4.789062 7.5625 4.878906 7.578125 4.964844 7.578125 C 5.148438 7.578125 5.332031 7.507812 5.472656 7.367188 L 8.382812 4.457031 C 8.589844 4.25 8.644531 3.949219 8.542969 3.691406 L 11.703125 0.53125 C 11.8125 0.417969 11.8125 0.238281 11.703125 0.128906 C 11.589844 0.015625 11.410156 0.015625 11.296875 0.128906 L 8.136719 3.289062 C 7.882812 3.1875 7.582031 3.242188 7.375 3.449219 L 4.460938 6.359375 C 4.253906 6.566406 4.203125 6.867188 4.300781 7.125 L 0.597656 10.828125 C 0.484375 10.941406 0.484375 11.121094 0.597656 11.234375 C 0.652344 11.289062 0.726562 11.316406 0.796875 11.316406 Z M 0.796875 11.316406 " fill-opacity="1" fill-rule="nonzero"/>
  </g>
  <g clip-path="url(#bdc780e718)">
    <path fill="#000000" d="M 0.796875 14.269531 C 0.871094 14.269531 0.945312 14.238281 1 14.183594 L 4.703125 10.480469 C 4.789062 10.511719 4.878906 10.53125 4.964844 10.53125 C 5.148438 10.53125 5.332031 10.460938 5.472656 10.320312 L 11.335938 4.457031 C 11.542969 4.25 11.59375 3.949219 11.492188 3.691406 L 14.652344 0.53125 C 14.765625 0.417969 14.765625 0.238281 14.652344 0.128906 C 14.542969 0.015625 14.363281 0.015625 14.25 0.128906 L 11.089844 3.289062 C 10.832031 3.1875 10.53125 3.242188 10.324219 3.449219 L 4.460938 9.3125 C 4.253906 9.519531 4.203125 9.820312 4.300781 10.074219 L 0.597656 13.78125 C 0.484375 13.890625 0.484375 14.074219 0.597656 14.183594 C 0.652344 14.238281 0.726562 14.269531 0.796875 14.269531 Z M 0.796875 14.269531 " fill-opacity="1" fill-rule="nonzero"/>
  </g>
  <g clip-path="url(#2b87a4d14b)">
    <path fill="#000000" d="M 0.796875 17.21875 C 0.871094 17.21875 0.945312 17.1875 1 17.132812 L 4.703125 13.429688 C 4.789062 13.460938 4.878906 13.476562 4.964844 13.476562 C 5.148438 13.476562 5.332031 13.410156 5.472656 13.269531 L 11.394531 7.347656 C 11.601562 7.140625 11.652344 6.835938 11.554688 6.578125 L 17.601562 0.53125 C 17.714844 0.417969 17.714844 0.238281 17.601562 0.128906 C 17.492188 0.015625 17.308594 0.015625 17.199219 0.128906 L 11.148438 6.175781 C 10.894531 6.078125 10.589844 6.128906 10.386719 6.335938 L 4.460938 12.261719 C 4.253906 12.464844 4.203125 12.769531 4.300781 13.023438 L 0.597656 16.730469 C 0.484375 16.839844 0.484375 17.023438 0.597656 17.132812 C 0.652344 17.1875 0.726562 17.21875 0.796875 17.21875 Z M 0.796875 17.21875 " fill-opacity="1" fill-rule="nonzero"/>
  </g>
  <g clip-path="url(#2ca7c4526e)">
    <path fill="#000000" d="M 0.796875 20.164062 C 0.871094 20.164062 0.945312 20.136719 1 20.082031 L 4.707031 16.378906 C 4.789062 16.410156 4.878906 16.425781 4.964844 16.425781 C 5.148438 16.425781 5.332031 16.359375 5.472656 16.21875 L 11.394531 10.296875 C 11.601562 10.089844 11.65625 9.789062 11.554688 9.53125 L 20.554688 0.53125 C 20.664062 0.417969 20.664062 0.238281 20.554688 0.128906 C 20.441406 0.015625 20.261719 0.015625 20.152344 0.128906 L 11.148438 9.128906 C 10.890625 9.03125 10.589844 9.082031 10.386719 9.289062 L 4.460938 15.207031 C 4.253906 15.414062 4.203125 15.71875 4.300781 15.972656 L 0.597656 19.679688 C 0.484375 19.789062 0.484375 19.96875 0.597656 20.082031 C 0.652344 20.136719 0.726562 20.164062 0.796875 20.164062 Z M 0.796875 20.164062 " fill-opacity="1" fill-rule="nonzero"/>
  </g>
  <g clip-path="url(#823e7cdf8a)">
    <path fill="#000000" d="M 0.796875 23.117188 C 0.871094 23.117188 0.945312 23.089844 1 23.035156 L 4.703125 19.328125 C 4.789062 19.363281 4.878906 19.378906 4.964844 19.378906 C 5.148438 19.378906 5.332031 19.308594 5.472656 19.171875 L 20.183594 4.457031 C 20.390625 4.25 20.445312 3.949219 20.34375 3.691406 L 23.503906 0.53125 C 23.613281 0.417969 23.613281 0.238281 23.503906 0.128906 C 23.390625 0.015625 23.210938 0.015625 23.097656 0.128906 L 19.9375 3.289062 C 19.683594 3.1875 19.382812 3.242188 19.175781 3.449219 L 4.460938 18.160156 C 4.253906 18.367188 4.203125 18.667969 4.300781 18.925781 L 0.597656 22.628906 C 0.484375 22.742188 0.484375 22.921875 0.597656 23.035156 C 0.652344 23.089844 0.726562 23.117188 0.796875 23.117188 Z M 0.796875 23.117188 " fill-opacity="1" fill-rule="nonzero"/>
  </g>
  <g clip-path="url(#efeed52ea2)">
    <path fill="#000000" d="M 0.796875 26.066406 C 0.871094 26.066406 0.945312 26.039062 1 25.984375 L 4.703125 22.277344 C 4.789062 22.3125 4.878906 22.328125 4.964844 22.328125 C 5.148438 22.328125 5.332031 22.257812 5.472656 22.117188 L 23.132812 4.457031 C 23.339844 4.25 23.390625 3.949219 23.292969 3.691406 L 26.453125 0.53125 C 26.5625 0.417969 26.5625 0.238281 26.453125 0.128906 C 26.339844 0.015625 26.160156 0.015625 26.046875 0.128906 L 22.886719 3.289062 C 22.632812 3.1875 22.328125 3.242188 22.125 3.449219 L 4.460938 21.109375 C 4.253906 21.316406 4.203125 21.617188 4.300781 21.871094 L 0.597656 25.578125 C 0.484375 25.691406 0.484375 25.871094 0.597656 25.984375 C 0.652344 26.039062 0.726562 26.066406 0.796875 26.066406 Z M 0.796875 26.066406 " fill-opacity="1" fill-rule="nonzero"/>
  </g>
  <g clip-path="url(#7b8b0adc1e)">
    <path fill="#000000" d="M 29 3.074219 L 18.214844 13.863281 C 17.957031 13.761719 17.65625 13.816406 17.449219 14.023438 L 13.46875 18.003906 C 13.261719 18.210938 13.210938 18.511719 13.308594 18.765625 L 11.148438 20.925781 C 10.894531 20.828125 10.589844 20.878906 10.386719 21.085938 L 6.867188 24.605469 C 6.660156 24.808594 6.609375 25.113281 6.707031 25.367188 L 3.546875 28.53125 C 3.433594 28.640625 3.433594 28.824219 3.546875 28.933594 C 3.601562 28.988281 3.675781 29.019531 3.746094 29.019531 C 3.820312 29.019531 3.894531 28.988281 3.949219 28.933594 L 7.113281 25.773438 C 7.195312 25.804688 7.285156 25.820312 7.375 25.820312 C 7.554688 25.820312 7.738281 25.753906 7.878906 25.613281 L 11.394531 22.097656 C 11.601562 21.886719 11.652344 21.585938 11.554688 21.328125 L 13.710938 19.171875 C 13.796875 19.203125 13.882812 19.222656 13.972656 19.222656 C 14.15625 19.222656 14.339844 19.152344 14.476562 19.011719 L 18.460938 15.03125 C 18.667969 14.824219 18.71875 14.519531 18.617188 14.265625 L 29.402344 3.480469 C 29.515625 3.367188 29.515625 3.1875 29.402344 3.074219 C 29.292969 2.964844 29.113281 2.964844 29 3.074219 Z M 29 3.074219 " fill-opacity="1" fill-rule="nonzero"/>
  </g>
  <g clip-path="url(#bfa8a381b6)">
    <path fill="#000000" d="M 29 6.023438 L 19.5 15.527344 C 19.242188 15.425781 18.941406 15.480469 18.734375 15.6875 L 14.765625 19.652344 C 14.5625 19.859375 14.507812 20.160156 14.609375 20.417969 L 11.148438 23.875 C 10.894531 23.777344 10.589844 23.828125 10.386719 24.035156 L 9.816406 24.605469 C 9.609375 24.808594 9.558594 25.113281 9.65625 25.367188 L 6.496094 28.53125 C 6.382812 28.640625 6.382812 28.824219 6.496094 28.933594 C 6.550781 28.988281 6.625 29.019531 6.695312 29.019531 C 6.769531 29.019531 6.84375 28.988281 6.898438 28.933594 L 10.058594 25.773438 C 10.144531 25.804688 10.234375 25.820312 10.320312 25.820312 C 10.503906 25.820312 10.6875 25.753906 10.828125 25.613281 L 11.394531 25.042969 C 11.601562 24.835938 11.65625 24.535156 11.554688 24.277344 L 15.011719 20.820312 C 15.09375 20.855469 15.183594 20.871094 15.273438 20.871094 C 15.453125 20.871094 15.636719 20.800781 15.777344 20.664062 L 19.746094 16.695312 C 19.953125 16.488281 20.003906 16.183594 19.902344 15.929688 L 29.402344 6.429688 C 29.515625 6.316406 29.515625 6.136719 29.402344 6.023438 C 29.292969 5.914062 29.113281 5.914062 29 6.023438 Z M 29 6.023438 " fill-opacity="1" fill-rule="nonzero"/>
  </g>
  <g clip-path="url(#64e985e611)">
    <path fill="#000000" d="M 29 8.976562 L 20.785156 17.191406 C 20.527344 17.089844 20.226562 17.144531 20.019531 17.351562 L 16.070312 21.304688 C 15.863281 21.511719 15.808594 21.808594 15.910156 22.066406 L 9.441406 28.53125 C 9.332031 28.640625 9.332031 28.824219 9.441406 28.933594 C 9.5 28.988281 9.570312 29.019531 9.644531 29.019531 C 9.71875 29.019531 9.789062 28.988281 9.847656 28.933594 L 16.308594 22.472656 C 16.394531 22.503906 16.484375 22.523438 16.574219 22.523438 C 16.757812 22.523438 16.9375 22.453125 17.078125 22.3125 L 21.027344 18.359375 C 21.234375 18.152344 21.289062 17.851562 21.1875 17.59375 L 29.402344 9.378906 C 29.515625 9.269531 29.515625 9.085938 29.402344 8.976562 C 29.292969 8.863281 29.113281 8.863281 29 8.976562 Z M 29 8.976562 " fill-opacity="1" fill-rule="nonzero"/>
  </g>
  <g clip-path="url(#823aaa51fb)">
    <path fill="#000000" d="M 29 11.925781 L 22.070312 18.855469 C 21.816406 18.753906 21.511719 18.808594 21.308594 19.015625 L 17.367188 22.953125 C 17.160156 23.160156 17.109375 23.460938 17.207031 23.71875 L 12.394531 28.53125 C 12.28125 28.640625 12.28125 28.824219 12.394531 28.933594 C 12.449219 28.988281 12.523438 29.019531 12.597656 29.019531 C 12.667969 29.019531 12.742188 28.988281 12.796875 28.933594 L 17.609375 24.121094 C 17.695312 24.15625 17.785156 24.171875 17.871094 24.171875 C 18.054688 24.171875 18.238281 24.101562 18.375 23.960938 L 22.316406 20.023438 C 22.523438 19.816406 22.574219 19.515625 22.476562 19.257812 L 29.402344 12.328125 C 29.515625 12.21875 29.515625 12.035156 29.402344 11.925781 C 29.292969 11.8125 29.113281 11.8125 29 11.925781 Z M 29 11.925781 " fill-opacity="1" fill-rule="nonzero"/>
  </g>
  <g clip-path="url(#d1661064de)">
    <path fill="#000000" d="M 29 14.875 L 23.351562 20.523438 C 23.097656 20.421875 22.796875 20.476562 22.589844 20.679688 L 18.667969 24.605469 C 18.460938 24.808594 18.40625 25.113281 18.507812 25.367188 L 15.34375 28.53125 C 15.230469 28.640625 15.230469 28.824219 15.34375 28.933594 C 15.398438 28.988281 15.472656 29.019531 15.546875 29.019531 C 15.617188 29.019531 15.691406 28.988281 15.746094 28.933594 L 18.910156 25.773438 C 18.992188 25.804688 19.082031 25.820312 19.171875 25.820312 C 19.355469 25.820312 19.535156 25.753906 19.675781 25.613281 L 23.597656 21.691406 C 23.804688 21.484375 23.859375 21.179688 23.757812 20.925781 L 29.402344 15.277344 C 29.515625 15.167969 29.515625 14.984375 29.402344 14.875 C 29.292969 14.761719 29.113281 14.761719 29 14.875 Z M 29 14.875 " fill-opacity="1" fill-rule="nonzero"/>
  </g>
  <g clip-path="url(#3e7f993340)">
    <path fill="#000000" d="M 29 17.824219 L 24.640625 22.1875 C 24.382812 22.085938 24.082031 22.140625 23.875 22.34375 L 21.617188 24.605469 C 21.410156 24.808594 21.359375 25.109375 21.457031 25.367188 L 18.296875 28.53125 C 18.183594 28.640625 18.183594 28.824219 18.296875 28.933594 C 18.351562 28.988281 18.425781 29.019531 18.496094 29.019531 C 18.570312 29.019531 18.644531 28.988281 18.699219 28.933594 L 21.859375 25.773438 C 21.945312 25.804688 22.035156 25.820312 22.121094 25.820312 C 22.304688 25.820312 22.488281 25.753906 22.628906 25.613281 L 24.886719 23.355469 C 25.09375 23.148438 25.144531 22.84375 25.042969 22.589844 L 29.402344 18.230469 C 29.515625 18.117188 29.515625 17.9375 29.402344 17.824219 C 29.292969 17.714844 29.113281 17.714844 29 17.824219 Z M 29 17.824219 " fill-opacity="1" fill-rule="nonzero"/>
  </g>
  <g clip-path="url(#f29f6063c8)">
    <path fill="#000000" d="M 29 20.773438 L 25.925781 23.851562 C 25.667969 23.75 25.367188 23.804688 25.160156 24.011719 L 24.566406 24.605469 C 24.359375 24.808594 24.308594 25.113281 24.40625 25.367188 L 21.242188 28.53125 C 21.132812 28.640625 21.132812 28.824219 21.242188 28.933594 C 21.300781 28.988281 21.371094 29.019531 21.445312 29.019531 C 21.519531 29.019531 21.589844 28.988281 21.648438 28.933594 L 24.808594 25.773438 C 24.894531 25.804688 24.984375 25.820312 25.070312 25.820312 C 25.253906 25.820312 25.4375 25.753906 25.578125 25.613281 L 26.171875 25.019531 C 26.378906 24.8125 26.429688 24.507812 26.328125 24.253906 L 29.402344 21.179688 C 29.515625 21.066406 29.515625 20.886719 29.402344 20.773438 C 29.292969 20.664062 29.113281 20.664062 29 20.773438 Z M 29 20.773438 " fill-opacity="1" fill-rule="nonzero"/>
  </g>
  <g clip-path="url(#e8e0c920d8)">
    <path fill="#000000" d="M 29 23.722656 L 24.191406 28.53125 C 24.082031 28.640625 24.082031 28.824219 24.191406 28.933594 C 24.25 28.988281 24.320312 29.019531 24.394531 29.019531 C 24.46875 29.019531 24.539062 28.988281 24.597656 28.933594 L 29.402344 24.128906 C 29.515625 24.015625 29.515625 23.835938 29.402344 23.722656 C 29.292969 23.613281 29.113281 23.613281 29 23.722656 Z M 29 23.722656 " fill-opacity="1" fill-rule="nonzero"/>
  </g>
  <g clip-path="url(#3d8af238c1)">
    <path fill="#000000" d="M 29 26.675781 L 27.144531 28.53125 C 27.03125 28.640625 27.03125 28.824219 27.144531 28.933594 C 27.199219 28.988281 27.273438 29.019531 27.347656 29.019531 C 27.417969 29.019531 27.492188 28.988281 27.546875 28.933594 L 29.402344 27.078125 C 29.515625 26.96875 29.515625 26.785156 29.402344 26.675781 C 29.292969 26.5625 29.113281 26.5625 29 26.675781 Z M 29 26.675781 " fill-opacity="1" fill-rule="nonzero"/>
  </g>
  <g clip-path="url(#ae84564057)">
    <path fill="#000000" d="M 4.964844 25.277344 C 5.148438 25.277344 5.332031 25.207031 5.472656 25.066406 L 26.085938 4.457031 C 26.292969 4.25 26.34375 3.945312 26.242188 3.691406 L 29.402344 0.53125 C 29.515625 0.417969 29.515625 0.238281 29.402344 0.128906 C 29.292969 0.015625 29.113281 0.015625 29 0.128906 L 25.839844 3.289062 C 25.582031 3.1875 25.28125 3.242188 25.074219 3.449219 L 4.460938 24.058594 C 4.253906 24.265625 4.203125 24.566406 4.300781 24.820312 L 0.597656 28.527344 C 0.542969 28.582031 0.511719 28.652344 0.511719 28.730469 C 0.511719 28.890625 0.640625 29.015625 0.796875 29.015625 C 0.882812 29.015625 0.957031 28.980469 1.011719 28.921875 L 4.707031 25.226562 C 4.789062 25.257812 4.878906 25.277344 4.964844 25.277344 Z M 4.964844 25.277344 " fill-opacity="1" fill-rule="nonzero"/>
  </g>
</svg>
